# xmcd
#
# Track frame offsets:
#	150
#	35345
#	67557
#	109600
#	128637
#	140030
#	163072
#
# Disc length: 2587 seconds
#
# Revision: 1
# Processed by: cddbd v1.5.1PL0 Copyright (c) Steve Scherf et al.
# Submitted via: CDex 1.50Beta5
#
DISCID=550a1907
DTITLE=YEN - AILAA
DYEAR=1997
DGENRE=Rock
TTITLE0=うたたね
TTITLE1=カオスモス
TTITLE2=鼓動するつぶやき
TTITLE3=エン・コーリング4
TTITLE4=白い空気
TTITLE5=ラピロス
TTITLE6=エン・コーリング5
EXTD=
EXTT0=
EXTT1=
EXTT2=
EXTT3=
EXTT4=
EXTT5=
EXTT6=
PLAYORDER=
